<?xml version="1.0" encoding="iso-8859-1"?>
<!-- Generator: Adobe Illustrator 19.0.0, SVG Export Plug-In . SVG Version: 6.00 Build 0)  -->
<svg xmlns="http://www.w3.org/2000/svg" xmlns:xlink="http://www.w3.org/1999/xlink" version="1.1" id="Layer_1" x="0px" y="0px" viewBox="0 0 512.002 512.002" style="enable-background:new 0 0 512.002 512.002;" xml:space="preserve" width="512px" height="512px">
<g>
	<g>
		<path d="M205.433,251.374c-1.941-5.903-8.301-9.114-14.202-7.173c-47.357,15.576-79.174,59.567-79.174,109.464    c0,6.214,5.038,11.251,11.251,11.251s11.251-5.037,11.251-11.251c0-40.157,25.6-75.557,63.702-88.088    C204.164,263.635,207.375,257.278,205.433,251.374z" fill="#858585"/>
	</g>
</g>
<g>
	<g>
		<path d="M439.768,201.943l-10.926-10.926c-0.003-0.003-0.007-0.008-0.01-0.011l-42.364-42.364c0,0-0.001,0-0.001-0.001    l-10.935-10.935c-4.393-4.393-11.515-4.393-15.912-0.001c-4.393,4.393-4.393,11.517,0,15.912l2.98,2.98l-58.547,58.547    c-6.243-3.451-12.768-6.506-19.549-9.129V70.185h10.362c6.213,0,11.251-5.037,11.251-11.251V11.251    C306.117,5.037,301.079,0,294.867,0H160.095c-6.213,0-11.251,5.037-11.251,11.251v47.684c0,6.214,5.038,11.251,11.251,11.251    h9.928v135.834c-60.792,23.51-101.084,81.838-101.084,147.648c0,22.355,4.667,43.638,13.061,62.939    c0.205,0.612,0.468,1.205,0.78,1.78c24.79,55.132,80.225,93.617,144.484,93.617c87.302,0,158.326-71.029,158.326-158.335    c0-29.363-8.026-57.235-22.311-81.193l57.599-57.599l2.979,2.979c2.197,2.197,5.076,3.295,7.955,3.295    c2.879,0,5.758-1.099,7.955-3.295C444.162,213.461,444.162,206.337,439.768,201.943z M171.346,22.501h112.271v25.182h-10.362    h-91.982h-9.928V22.501z M227.264,489.499c-39.925,0-75.879-17.32-100.752-44.837c9.942,2.95,20.212,4.446,30.481,4.446    c27.488,0,54.936-10.542,75.852-31.457c16.006-16.006,37.286-24.82,59.92-24.82c20.886,0,40.611,7.526,56.114,21.27    C326.601,458.753,280.459,489.499,227.264,489.499z M357.545,392.097c-18.547-14.12-41.074-21.769-64.778-21.769    c-28.644,0-55.574,11.155-75.831,31.41c-31.399,31.399-81.402,33.187-114.896,4.519c-6.821-16.184-10.597-33.956-10.597-52.593    c-0.002-58.822,37.512-110.682,93.345-129.045c0.081-0.027,0.156-0.063,0.236-0.091c0.255-0.091,0.511-0.185,0.757-0.292    c0.133-0.057,0.259-0.125,0.388-0.187c0.196-0.096,0.393-0.189,0.582-0.295c0.165-0.092,0.324-0.193,0.483-0.294    c0.143-0.09,0.288-0.178,0.428-0.273c0.178-0.123,0.348-0.254,0.518-0.387c0.114-0.089,0.227-0.174,0.338-0.267    c0.17-0.143,0.331-0.294,0.491-0.446c0.103-0.098,0.207-0.193,0.307-0.296c0.146-0.15,0.284-0.306,0.421-0.464    c0.105-0.119,0.209-0.237,0.309-0.361c0.116-0.145,0.225-0.296,0.334-0.447c0.107-0.148,0.215-0.296,0.315-0.45    c0.088-0.136,0.169-0.275,0.252-0.414c0.105-0.178,0.209-0.354,0.305-0.538c0.066-0.128,0.126-0.259,0.188-0.389    c0.093-0.198,0.186-0.397,0.269-0.602c0.054-0.133,0.1-0.27,0.148-0.405c0.072-0.203,0.145-0.405,0.206-0.613    c0.047-0.161,0.086-0.325,0.126-0.488c0.045-0.185,0.092-0.367,0.128-0.555c0.04-0.21,0.069-0.423,0.097-0.636    c0.019-0.146,0.044-0.29,0.057-0.438c0.025-0.263,0.034-0.529,0.041-0.794c0.002-0.09,0.013-0.177,0.013-0.268v-0.142    c0-0.019,0-0.037,0-0.056V70.185h69.481v143.549c0,0.019,0,0.037,0,0.056v0.142c0,0.091,0.011,0.179,0.013,0.269    c0.007,0.266,0.015,0.53,0.041,0.792c0.013,0.148,0.038,0.294,0.057,0.44c0.029,0.213,0.056,0.424,0.097,0.633    c0.036,0.188,0.083,0.37,0.128,0.555c0.041,0.163,0.078,0.327,0.126,0.488c0.061,0.208,0.134,0.411,0.206,0.613    c0.048,0.135,0.094,0.271,0.148,0.405c0.082,0.205,0.174,0.404,0.269,0.602c0.062,0.13,0.122,0.261,0.188,0.389    c0.096,0.183,0.199,0.361,0.305,0.538c0.082,0.14,0.163,0.278,0.252,0.414c0.1,0.153,0.207,0.302,0.315,0.45    c0.109,0.151,0.217,0.3,0.334,0.447c0.099,0.124,0.205,0.242,0.309,0.361c0.137,0.157,0.275,0.314,0.421,0.464    c0.1,0.102,0.205,0.198,0.308,0.296c0.16,0.152,0.321,0.303,0.489,0.445c0.11,0.093,0.225,0.179,0.339,0.268    c0.17,0.132,0.339,0.263,0.518,0.387c0.139,0.096,0.284,0.183,0.427,0.273c0.16,0.1,0.317,0.201,0.483,0.294    c0.189,0.106,0.386,0.2,0.582,0.295c0.129,0.063,0.255,0.129,0.388,0.187c0.246,0.108,0.502,0.201,0.757,0.292    c0.08,0.028,0.155,0.064,0.236,0.091c28.226,9.283,51.757,27.135,68.14,50.11c0.53,1.64,1.437,3.186,2.74,4.489    c0.246,0.246,0.504,0.475,0.767,0.693c13.843,21.444,21.701,46.865,21.701,73.753C363.091,367.01,361.148,379.906,357.545,392.097    z M350.191,253.738c-7.855-9.665-16.865-18.415-26.871-26.035l55.193-55.195l26.454,26.454L350.191,253.738z" fill="#858585"/>
	</g>
</g>
<g>
</g>
<g>
</g>
<g>
</g>
<g>
</g>
<g>
</g>
<g>
</g>
<g>
</g>
<g>
</g>
<g>
</g>
<g>
</g>
<g>
</g>
<g>
</g>
<g>
</g>
<g>
</g>
<g>
</g>
</svg>
