<?xml version="1.0" encoding="iso-8859-1"?>
<!-- Generator: Adobe Illustrator 19.0.0, SVG Export Plug-In . SVG Version: 6.00 Build 0)  -->
<svg xmlns="http://www.w3.org/2000/svg" xmlns:xlink="http://www.w3.org/1999/xlink" version="1.1" id="Layer_1" x="0px" y="0px" viewBox="0 0 512 512" style="enable-background:new 0 0 512 512;" xml:space="preserve" width="512px" height="512px">
<g>
	<g>
		<path d="M512,137.137L329.156,42.66L256,80.457L182.859,42.66L0,137.137l73.156,37.789L0,212.723l73.156,37.789v145.672    L256,469.34l182.859-73.156V250.512L512,212.723l-73.141-37.797L512,137.137z M329.156,66.676l136.375,70.461l-49.906,25.789    L279.25,92.457L329.156,66.676z M46.484,137.137l136.375-70.461l49.906,25.781L96.391,162.926L46.484,137.137z M46.484,212.723    l49.907-25.789l136.375,70.461l-49.906,25.789L46.484,212.723z M245.343,442.09L94.484,381.746V261.535l88.375,45.648    l62.484-32.266V442.09z M119.625,174.926L256,104.465l136.391,70.461L256,245.395L119.625,174.926z M417.531,381.746    L266.672,442.09V274.918l62.484,32.266l88.375-45.648V381.746z M465.531,212.723l-136.375,70.461l-49.906-25.789l136.375-70.461    L465.531,212.723z" fill="#858585"/>
	</g>
</g>
<g>
</g>
<g>
</g>
<g>
</g>
<g>
</g>
<g>
</g>
<g>
</g>
<g>
</g>
<g>
</g>
<g>
</g>
<g>
</g>
<g>
</g>
<g>
</g>
<g>
</g>
<g>
</g>
<g>
</g>
</svg>
